<mxfile host="app.diagrams.net" agent="Mozilla/5.0 (Windows NT 10.0; Win64; x64) AppleWebKit/537.36 (KHTML, like Gecko) Chrome/129.0.0.0 Safari/537.36" version="24.7.17">
  <diagram name="Page-1" id="Po5lpgRPr_kwIh1h1BkI">
    <mxGraphModel dx="2942" dy="1236" grid="1" gridSize="10" guides="1" tooltips="1" connect="1" arrows="1" fold="1" page="1" pageScale="1" pageWidth="850" pageHeight="1100" math="0" shadow="0">
      <root>
        <mxCell id="0" />
        <mxCell id="1" parent="0" />
        <mxCell id="a2AWZiOSdfrPiWVWoPkz-7" value="" style="edgeStyle=orthogonalEdgeStyle;rounded=0;orthogonalLoop=1;jettySize=auto;html=1;" edge="1" parent="1" source="a2AWZiOSdfrPiWVWoPkz-1" target="a2AWZiOSdfrPiWVWoPkz-6">
          <mxGeometry relative="1" as="geometry" />
        </mxCell>
        <mxCell id="a2AWZiOSdfrPiWVWoPkz-1" value="&lt;div style=&quot;forced-color-adjust: none;&quot;&gt;Information Collection&lt;/div&gt;" style="html=1;shadow=0;dashed=0;shape=mxgraph.bootstrap.rrect;rSize=5;strokeColor=none;strokeWidth=1;fillColor=#DB2843;fontColor=#FFFFFF;whiteSpace=wrap;align=center;verticalAlign=middle;spacingLeft=0;fontStyle=1;fontSize=14;spacing=5;rounded=1;glass=0;fillStyle=auto;fontFamily=Comic Sans MS;horizontal=1;textDirection=rtl;points=[];" vertex="1" parent="1">
          <mxGeometry x="430" y="30" width="147" height="50" as="geometry" />
        </mxCell>
        <mxCell id="a2AWZiOSdfrPiWVWoPkz-2" value="&lt;div style=&quot;forced-color-adjust: none;&quot;&gt;Production&lt;/div&gt;" style="html=1;shadow=0;dashed=0;shape=mxgraph.bootstrap.rrect;rSize=5;strokeColor=none;strokeWidth=1;fillColor=#DB2843;fontColor=#FFFFFF;whiteSpace=wrap;align=center;verticalAlign=middle;spacingLeft=0;fontStyle=1;fontSize=14;spacing=5;rounded=1;glass=0;fillStyle=auto;fontFamily=Comic Sans MS;horizontal=1;textDirection=rtl;points=[];" vertex="1" parent="1">
          <mxGeometry x="210" y="30" width="147" height="50" as="geometry" />
        </mxCell>
        <mxCell id="a2AWZiOSdfrPiWVWoPkz-13" style="edgeStyle=orthogonalEdgeStyle;rounded=0;orthogonalLoop=1;jettySize=auto;html=1;" edge="1" parent="1" source="a2AWZiOSdfrPiWVWoPkz-3" target="a2AWZiOSdfrPiWVWoPkz-4">
          <mxGeometry relative="1" as="geometry" />
        </mxCell>
        <mxCell id="a2AWZiOSdfrPiWVWoPkz-3" value="&lt;div style=&quot;forced-color-adjust: none;&quot;&gt;Senario&lt;/div&gt;" style="html=1;shadow=0;dashed=0;shape=mxgraph.bootstrap.rrect;rSize=5;strokeColor=none;strokeWidth=1;fillColor=#DB2843;fontColor=#FFFFFF;whiteSpace=wrap;align=center;verticalAlign=middle;spacingLeft=0;fontStyle=1;fontSize=14;spacing=5;rounded=1;glass=0;fillStyle=auto;fontFamily=Comic Sans MS;horizontal=1;textDirection=rtl;points=[];" vertex="1" parent="1">
          <mxGeometry x="210" y="140" width="147" height="50" as="geometry" />
        </mxCell>
        <mxCell id="a2AWZiOSdfrPiWVWoPkz-4" value="&lt;div style=&quot;forced-color-adjust: none;&quot;&gt;Recording&lt;/div&gt;" style="html=1;shadow=0;dashed=0;shape=mxgraph.bootstrap.rrect;rSize=5;strokeColor=none;strokeWidth=1;fillColor=#DB2843;fontColor=#FFFFFF;whiteSpace=wrap;align=center;verticalAlign=middle;spacingLeft=0;fontStyle=1;fontSize=14;spacing=5;rounded=1;glass=0;fillStyle=auto;fontFamily=Comic Sans MS;horizontal=1;textDirection=rtl;points=[];" vertex="1" parent="1">
          <mxGeometry x="210" y="230" width="147" height="50" as="geometry" />
        </mxCell>
        <mxCell id="a2AWZiOSdfrPiWVWoPkz-15" value="" style="edgeStyle=orthogonalEdgeStyle;rounded=0;orthogonalLoop=1;jettySize=auto;html=1;" edge="1" parent="1" source="a2AWZiOSdfrPiWVWoPkz-5" target="a2AWZiOSdfrPiWVWoPkz-14">
          <mxGeometry relative="1" as="geometry" />
        </mxCell>
        <mxCell id="a2AWZiOSdfrPiWVWoPkz-5" value="&lt;div style=&quot;forced-color-adjust: none;&quot;&gt;Release&lt;/div&gt;" style="html=1;shadow=0;dashed=0;shape=mxgraph.bootstrap.rrect;rSize=5;strokeColor=none;strokeWidth=1;fillColor=#DB2843;fontColor=#FFFFFF;whiteSpace=wrap;align=center;verticalAlign=middle;spacingLeft=0;fontStyle=1;fontSize=14;spacing=5;rounded=1;glass=0;fillStyle=auto;fontFamily=Comic Sans MS;horizontal=1;textDirection=rtl;points=[];" vertex="1" parent="1">
          <mxGeometry x="-10" y="30" width="147" height="50" as="geometry" />
        </mxCell>
        <mxCell id="a2AWZiOSdfrPiWVWoPkz-9" value="" style="edgeStyle=orthogonalEdgeStyle;rounded=0;orthogonalLoop=1;jettySize=auto;html=1;" edge="1" parent="1" source="a2AWZiOSdfrPiWVWoPkz-6" target="a2AWZiOSdfrPiWVWoPkz-8">
          <mxGeometry relative="1" as="geometry" />
        </mxCell>
        <mxCell id="a2AWZiOSdfrPiWVWoPkz-6" value="&lt;div style=&quot;forced-color-adjust: none;&quot;&gt;Find Resource&lt;/div&gt;" style="html=1;shadow=0;dashed=0;shape=mxgraph.bootstrap.rrect;rSize=5;strokeColor=#005700;strokeWidth=1;fillColor=#008a00;whiteSpace=wrap;align=center;verticalAlign=middle;spacingLeft=0;fontStyle=1;fontSize=14;spacing=5;rounded=1;glass=0;fillStyle=auto;fontFamily=Comic Sans MS;horizontal=1;textDirection=rtl;points=[];fontColor=#ffffff;" vertex="1" parent="1">
          <mxGeometry x="430" y="140" width="147" height="50" as="geometry" />
        </mxCell>
        <mxCell id="a2AWZiOSdfrPiWVWoPkz-11" value="" style="edgeStyle=orthogonalEdgeStyle;rounded=0;orthogonalLoop=1;jettySize=auto;html=1;" edge="1" parent="1" source="a2AWZiOSdfrPiWVWoPkz-8" target="a2AWZiOSdfrPiWVWoPkz-10">
          <mxGeometry relative="1" as="geometry" />
        </mxCell>
        <mxCell id="a2AWZiOSdfrPiWVWoPkz-8" value="&lt;div style=&quot;forced-color-adjust: none;&quot;&gt;Create a Map&lt;/div&gt;" style="html=1;shadow=0;dashed=0;shape=mxgraph.bootstrap.rrect;rSize=5;strokeColor=#005700;strokeWidth=1;fillColor=#008a00;fontColor=#ffffff;whiteSpace=wrap;align=center;verticalAlign=middle;spacingLeft=0;fontStyle=1;fontSize=14;spacing=5;rounded=1;glass=0;fillStyle=auto;fontFamily=Comic Sans MS;horizontal=1;textDirection=rtl;points=[];" vertex="1" parent="1">
          <mxGeometry x="430" y="240" width="147" height="50" as="geometry" />
        </mxCell>
        <mxCell id="a2AWZiOSdfrPiWVWoPkz-10" value="&lt;div style=&quot;forced-color-adjust: none;&quot;&gt;Read &amp;amp; Learn&lt;/div&gt;" style="html=1;shadow=0;dashed=0;shape=mxgraph.bootstrap.rrect;rSize=5;strokeColor=none;strokeWidth=1;fillColor=#DB2843;fontColor=#FFFFFF;whiteSpace=wrap;align=center;verticalAlign=middle;spacingLeft=0;fontStyle=1;fontSize=14;spacing=5;rounded=1;glass=0;fillStyle=auto;fontFamily=Comic Sans MS;horizontal=1;textDirection=rtl;points=[];" vertex="1" parent="1">
          <mxGeometry x="430" y="350" width="147" height="50" as="geometry" />
        </mxCell>
        <mxCell id="a2AWZiOSdfrPiWVWoPkz-12" style="edgeStyle=orthogonalEdgeStyle;rounded=0;orthogonalLoop=1;jettySize=auto;html=1;entryX=0.503;entryY=0.019;entryDx=0;entryDy=0;entryPerimeter=0;" edge="1" parent="1" source="a2AWZiOSdfrPiWVWoPkz-2" target="a2AWZiOSdfrPiWVWoPkz-3">
          <mxGeometry relative="1" as="geometry" />
        </mxCell>
        <mxCell id="a2AWZiOSdfrPiWVWoPkz-14" value="&lt;div style=&quot;forced-color-adjust: none;&quot;&gt;Review&lt;/div&gt;" style="html=1;shadow=0;dashed=0;shape=mxgraph.bootstrap.rrect;rSize=5;strokeColor=none;strokeWidth=1;fillColor=#DB2843;fontColor=#FFFFFF;whiteSpace=wrap;align=center;verticalAlign=middle;spacingLeft=0;fontStyle=1;fontSize=14;spacing=5;rounded=1;glass=0;fillStyle=auto;fontFamily=Comic Sans MS;horizontal=1;textDirection=rtl;points=[];" vertex="1" parent="1">
          <mxGeometry x="-10" y="140" width="147" height="50" as="geometry" />
        </mxCell>
        <mxCell id="a2AWZiOSdfrPiWVWoPkz-20" value="" style="edgeStyle=orthogonalEdgeStyle;rounded=0;orthogonalLoop=1;jettySize=auto;html=1;" edge="1" parent="1" source="a2AWZiOSdfrPiWVWoPkz-18" target="a2AWZiOSdfrPiWVWoPkz-19">
          <mxGeometry relative="1" as="geometry" />
        </mxCell>
        <mxCell id="a2AWZiOSdfrPiWVWoPkz-30" value="" style="edgeStyle=orthogonalEdgeStyle;rounded=0;orthogonalLoop=1;jettySize=auto;html=1;" edge="1" parent="1" source="a2AWZiOSdfrPiWVWoPkz-18" target="a2AWZiOSdfrPiWVWoPkz-29">
          <mxGeometry relative="1" as="geometry" />
        </mxCell>
        <mxCell id="a2AWZiOSdfrPiWVWoPkz-32" value="" style="edgeStyle=orthogonalEdgeStyle;rounded=0;orthogonalLoop=1;jettySize=auto;html=1;" edge="1" parent="1" source="a2AWZiOSdfrPiWVWoPkz-18" target="a2AWZiOSdfrPiWVWoPkz-31">
          <mxGeometry relative="1" as="geometry" />
        </mxCell>
        <mxCell id="a2AWZiOSdfrPiWVWoPkz-36" value="" style="edgeStyle=orthogonalEdgeStyle;rounded=0;orthogonalLoop=1;jettySize=auto;html=1;" edge="1" parent="1" source="a2AWZiOSdfrPiWVWoPkz-18" target="a2AWZiOSdfrPiWVWoPkz-35">
          <mxGeometry relative="1" as="geometry" />
        </mxCell>
        <mxCell id="a2AWZiOSdfrPiWVWoPkz-18" value="&lt;div style=&quot;forced-color-adjust: none;&quot;&gt;Resources&lt;/div&gt;" style="html=1;shadow=0;dashed=0;shape=mxgraph.bootstrap.rrect;rSize=5;strokeColor=none;strokeWidth=1;fillColor=#DB2843;fontColor=#FFFFFF;whiteSpace=wrap;align=center;verticalAlign=middle;spacingLeft=0;fontStyle=1;fontSize=14;spacing=5;rounded=1;glass=0;fillStyle=auto;fontFamily=Comic Sans MS;horizontal=1;textDirection=rtl;points=[];" vertex="1" parent="1">
          <mxGeometry x="-560" y="40" width="147" height="50" as="geometry" />
        </mxCell>
        <mxCell id="a2AWZiOSdfrPiWVWoPkz-19" value="&lt;div style=&quot;forced-color-adjust: none;&quot;&gt;Documantation&lt;/div&gt;" style="html=1;shadow=0;dashed=0;shape=mxgraph.bootstrap.rrect;rSize=5;strokeColor=none;strokeWidth=1;fillColor=#DB2843;fontColor=#FFFFFF;whiteSpace=wrap;align=center;verticalAlign=middle;spacingLeft=0;fontStyle=1;fontSize=14;spacing=5;rounded=1;glass=0;fillStyle=auto;fontFamily=Comic Sans MS;horizontal=1;textDirection=rtl;points=[];" vertex="1" parent="1">
          <mxGeometry x="-750" y="250" width="147" height="50" as="geometry" />
        </mxCell>
        <mxCell id="a2AWZiOSdfrPiWVWoPkz-29" value="&lt;div style=&quot;forced-color-adjust: none;&quot;&gt;React Under The Hood&lt;/div&gt;" style="html=1;shadow=0;dashed=0;shape=mxgraph.bootstrap.rrect;rSize=5;strokeColor=none;strokeWidth=1;fillColor=#DB2843;fontColor=#FFFFFF;whiteSpace=wrap;align=center;verticalAlign=middle;spacingLeft=0;fontStyle=1;fontSize=14;spacing=5;rounded=1;glass=0;fillStyle=auto;fontFamily=Comic Sans MS;horizontal=1;textDirection=rtl;points=[];" vertex="1" parent="1">
          <mxGeometry x="-560" y="260" width="147" height="50" as="geometry" />
        </mxCell>
        <mxCell id="a2AWZiOSdfrPiWVWoPkz-34" value="" style="edgeStyle=orthogonalEdgeStyle;rounded=0;orthogonalLoop=1;jettySize=auto;html=1;" edge="1" parent="1" source="a2AWZiOSdfrPiWVWoPkz-31" target="a2AWZiOSdfrPiWVWoPkz-33">
          <mxGeometry relative="1" as="geometry" />
        </mxCell>
        <mxCell id="a2AWZiOSdfrPiWVWoPkz-31" value="&lt;div style=&quot;forced-color-adjust: none;&quot;&gt;Advanced Topics&lt;/div&gt;" style="html=1;shadow=0;dashed=0;shape=mxgraph.bootstrap.rrect;rSize=5;strokeColor=none;strokeWidth=1;fillColor=#DB2843;fontColor=#FFFFFF;whiteSpace=wrap;align=center;verticalAlign=middle;spacingLeft=0;fontStyle=1;fontSize=14;spacing=5;rounded=1;glass=0;fillStyle=auto;fontFamily=Comic Sans MS;horizontal=1;textDirection=rtl;points=[];" vertex="1" parent="1">
          <mxGeometry x="-370" y="160" width="147" height="50" as="geometry" />
        </mxCell>
        <mxCell id="a2AWZiOSdfrPiWVWoPkz-33" value="&lt;div style=&quot;forced-color-adjust: none;&quot;&gt;Search For Each Concept&lt;/div&gt;" style="html=1;shadow=0;dashed=0;shape=mxgraph.bootstrap.rrect;rSize=5;strokeColor=none;strokeWidth=1;fillColor=#DB2843;fontColor=#FFFFFF;whiteSpace=wrap;align=center;verticalAlign=middle;spacingLeft=0;fontStyle=1;fontSize=14;spacing=5;rounded=1;glass=0;fillStyle=auto;fontFamily=Comic Sans MS;horizontal=1;textDirection=rtl;points=[];" vertex="1" parent="1">
          <mxGeometry x="-370" y="300" width="147" height="50" as="geometry" />
        </mxCell>
        <mxCell id="a2AWZiOSdfrPiWVWoPkz-38" value="" style="edgeStyle=orthogonalEdgeStyle;rounded=0;orthogonalLoop=1;jettySize=auto;html=1;" edge="1" parent="1" source="a2AWZiOSdfrPiWVWoPkz-35" target="a2AWZiOSdfrPiWVWoPkz-37">
          <mxGeometry relative="1" as="geometry" />
        </mxCell>
        <mxCell id="a2AWZiOSdfrPiWVWoPkz-40" value="" style="edgeStyle=orthogonalEdgeStyle;rounded=0;orthogonalLoop=1;jettySize=auto;html=1;" edge="1" parent="1" source="a2AWZiOSdfrPiWVWoPkz-35" target="a2AWZiOSdfrPiWVWoPkz-39">
          <mxGeometry relative="1" as="geometry" />
        </mxCell>
        <mxCell id="a2AWZiOSdfrPiWVWoPkz-35" value="&lt;div style=&quot;forced-color-adjust: none;&quot;&gt;Testing The React&lt;/div&gt;" style="html=1;shadow=0;dashed=0;shape=mxgraph.bootstrap.rrect;rSize=5;strokeColor=none;strokeWidth=1;fillColor=#DB2843;fontColor=#FFFFFF;whiteSpace=wrap;align=center;verticalAlign=middle;spacingLeft=0;fontStyle=1;fontSize=14;spacing=5;rounded=1;glass=0;fillStyle=auto;fontFamily=Comic Sans MS;horizontal=1;textDirection=rtl;points=[];" vertex="1" parent="1">
          <mxGeometry x="-850" y="350" width="147" height="50" as="geometry" />
        </mxCell>
        <mxCell id="a2AWZiOSdfrPiWVWoPkz-37" value="&lt;div style=&quot;forced-color-adjust: none;&quot;&gt;Lifecycle&lt;/div&gt;" style="html=1;shadow=0;dashed=0;shape=mxgraph.bootstrap.rrect;rSize=5;strokeColor=none;strokeWidth=1;fillColor=#DB2843;fontColor=#FFFFFF;whiteSpace=wrap;align=center;verticalAlign=middle;spacingLeft=0;fontStyle=1;fontSize=14;spacing=5;rounded=1;glass=0;fillStyle=auto;fontFamily=Comic Sans MS;horizontal=1;textDirection=rtl;points=[];" vertex="1" parent="1">
          <mxGeometry x="-850" y="480" width="147" height="50" as="geometry" />
        </mxCell>
        <mxCell id="a2AWZiOSdfrPiWVWoPkz-39" value="&lt;div style=&quot;forced-color-adjust: none;&quot;&gt;Hooks&lt;/div&gt;" style="html=1;shadow=0;dashed=0;shape=mxgraph.bootstrap.rrect;rSize=5;strokeColor=none;strokeWidth=1;fillColor=#DB2843;fontColor=#FFFFFF;whiteSpace=wrap;align=center;verticalAlign=middle;spacingLeft=0;fontStyle=1;fontSize=14;spacing=5;rounded=1;glass=0;fillStyle=auto;fontFamily=Comic Sans MS;horizontal=1;textDirection=rtl;points=[];" vertex="1" parent="1">
          <mxGeometry x="-650" y="440" width="147" height="50" as="geometry" />
        </mxCell>
        <mxCell id="a2AWZiOSdfrPiWVWoPkz-43" value="" style="edgeStyle=orthogonalEdgeStyle;rounded=0;orthogonalLoop=1;jettySize=auto;html=1;" edge="1" parent="1" source="a2AWZiOSdfrPiWVWoPkz-41" target="a2AWZiOSdfrPiWVWoPkz-42">
          <mxGeometry relative="1" as="geometry" />
        </mxCell>
        <mxCell id="a2AWZiOSdfrPiWVWoPkz-45" value="" style="edgeStyle=orthogonalEdgeStyle;rounded=0;orthogonalLoop=1;jettySize=auto;html=1;" edge="1" parent="1" source="a2AWZiOSdfrPiWVWoPkz-41" target="a2AWZiOSdfrPiWVWoPkz-44">
          <mxGeometry relative="1" as="geometry" />
        </mxCell>
        <mxCell id="a2AWZiOSdfrPiWVWoPkz-50" value="" style="edgeStyle=orthogonalEdgeStyle;rounded=0;orthogonalLoop=1;jettySize=auto;html=1;" edge="1" parent="1" source="a2AWZiOSdfrPiWVWoPkz-41" target="a2AWZiOSdfrPiWVWoPkz-49">
          <mxGeometry relative="1" as="geometry" />
        </mxCell>
        <mxCell id="a2AWZiOSdfrPiWVWoPkz-52" value="" style="edgeStyle=orthogonalEdgeStyle;rounded=0;orthogonalLoop=1;jettySize=auto;html=1;" edge="1" parent="1" source="a2AWZiOSdfrPiWVWoPkz-41" target="a2AWZiOSdfrPiWVWoPkz-51">
          <mxGeometry relative="1" as="geometry" />
        </mxCell>
        <mxCell id="a2AWZiOSdfrPiWVWoPkz-54" value="" style="edgeStyle=orthogonalEdgeStyle;rounded=0;orthogonalLoop=1;jettySize=auto;html=1;" edge="1" parent="1" source="a2AWZiOSdfrPiWVWoPkz-41" target="a2AWZiOSdfrPiWVWoPkz-53">
          <mxGeometry relative="1" as="geometry" />
        </mxCell>
        <mxCell id="a2AWZiOSdfrPiWVWoPkz-41" value="Map Of Teaching" style="html=1;shadow=0;dashed=0;shape=mxgraph.bootstrap.rrect;rSize=5;strokeColor=none;strokeWidth=1;fillColor=#DB2843;fontColor=#FFFFFF;whiteSpace=wrap;align=center;verticalAlign=middle;spacingLeft=0;fontStyle=1;fontSize=14;spacing=5;rounded=1;glass=0;fillStyle=auto;fontFamily=Comic Sans MS;horizontal=1;textDirection=rtl;points=[];" vertex="1" parent="1">
          <mxGeometry x="-147" y="660" width="147" height="50" as="geometry" />
        </mxCell>
        <mxCell id="a2AWZiOSdfrPiWVWoPkz-42" value="&amp;nbsp;Why and How?" style="html=1;shadow=0;dashed=0;shape=mxgraph.bootstrap.rrect;rSize=5;strokeColor=none;strokeWidth=1;fillColor=#DB2843;fontColor=#FFFFFF;whiteSpace=wrap;align=center;verticalAlign=middle;spacingLeft=0;fontStyle=1;fontSize=14;spacing=5;rounded=1;glass=0;fillStyle=auto;fontFamily=Comic Sans MS;horizontal=1;textDirection=rtl;points=[];" vertex="1" parent="1">
          <mxGeometry x="-425" y="790" width="147" height="50" as="geometry" />
        </mxCell>
        <mxCell id="a2AWZiOSdfrPiWVWoPkz-44" value="Trining How and explain the why in progress" style="html=1;shadow=0;dashed=0;shape=mxgraph.bootstrap.rrect;rSize=5;strokeColor=none;strokeWidth=1;fillColor=#DB2843;fontColor=#FFFFFF;whiteSpace=wrap;align=center;verticalAlign=middle;spacingLeft=0;fontStyle=1;fontSize=14;spacing=5;rounded=1;glass=0;fillStyle=auto;fontFamily=Comic Sans MS;horizontal=1;textDirection=rtl;points=[];" vertex="1" parent="1">
          <mxGeometry x="-147" y="800" width="147" height="50" as="geometry" />
        </mxCell>
        <mxCell id="a2AWZiOSdfrPiWVWoPkz-49" value="Testing &amp;amp; Reflection" style="html=1;shadow=0;dashed=0;shape=mxgraph.bootstrap.rrect;rSize=5;strokeColor=none;strokeWidth=1;fillColor=#DB2843;fontColor=#FFFFFF;whiteSpace=wrap;align=center;verticalAlign=middle;spacingLeft=0;fontStyle=1;fontSize=14;spacing=5;rounded=1;glass=0;fillStyle=auto;fontFamily=Comic Sans MS;horizontal=1;textDirection=rtl;points=[];" vertex="1" parent="1">
          <mxGeometry x="100" y="810" width="147" height="50" as="geometry" />
        </mxCell>
        <mxCell id="a2AWZiOSdfrPiWVWoPkz-51" value="Better Experince&amp;nbsp;" style="html=1;shadow=0;dashed=0;shape=mxgraph.bootstrap.rrect;rSize=5;strokeColor=none;strokeWidth=1;fillColor=#DB2843;fontColor=#FFFFFF;whiteSpace=wrap;align=center;verticalAlign=middle;spacingLeft=0;fontStyle=1;fontSize=14;spacing=5;rounded=1;glass=0;fillStyle=auto;fontFamily=Comic Sans MS;horizontal=1;textDirection=rtl;points=[];" vertex="1" parent="1">
          <mxGeometry x="10" y="1010" width="147" height="50" as="geometry" />
        </mxCell>
        <mxCell id="a2AWZiOSdfrPiWVWoPkz-53" value="Some Specieal Problems or Patterns" style="html=1;shadow=0;dashed=0;shape=mxgraph.bootstrap.rrect;rSize=5;strokeColor=none;strokeWidth=1;fillColor=#DB2843;fontColor=#FFFFFF;whiteSpace=wrap;align=center;verticalAlign=middle;spacingLeft=0;fontStyle=1;fontSize=14;spacing=5;rounded=1;glass=0;fillStyle=auto;fontFamily=Comic Sans MS;horizontal=1;textDirection=rtl;points=[];" vertex="1" parent="1">
          <mxGeometry x="-310" y="990" width="147" height="50" as="geometry" />
        </mxCell>
      </root>
    </mxGraphModel>
  </diagram>
</mxfile>
